<?xml version="1.0" standalone="no"?><!DOCTYPE svg PUBLIC "-//W3C//DTD SVG 1.1//EN" "http://www.w3.org/Graphics/SVG/1.1/DTD/svg11.dtd"><svg t="1545275897045" class="icon" style="" viewBox="0 0 1024 1024" version="1.1" xmlns="http://www.w3.org/2000/svg" p-id="2070" xmlns:xlink="http://www.w3.org/1999/xlink" width="128" height="128"><defs><style type="text/css"></style></defs><path d="M512 1024C228.266667 1024 0 795.733333 0 512S228.266667 0 512 0s512 228.266667 512 512-228.266667 512-512 512z m-4.266667-942.933333c-151.466667 0-275.2 123.733333-275.2 275.2 0 151.466667 123.733333 275.2 275.2 275.2 151.466667 0 275.2-123.733333 275.2-275.2 0-153.6-123.733333-275.2-275.2-275.2z m121.6 339.2c0 61.866667-55.466667 110.933333-121.6 110.933333-68.266667 0-121.6-49.066667-121.6-110.933333 0-40.533333 23.466667-76.8 59.733334-96-32-17.066667-53.333333-49.066667-53.333334-87.466667 0-55.466667 49.066667-100.266667 110.933334-100.266667 61.866667 0 110.933333 44.8 110.933333 100.266667 0 34.133333-19.2 66.133333-49.066667 83.2 38.4 21.333333 64 57.6 64 100.266667z m-128-232.533334c-32 0-57.6 23.466667-57.6 51.2 0 27.733333 25.6 51.2 57.6 51.2 32 0 57.6-23.466667 57.6-51.2 0-29.866667-25.6-51.2-57.6-51.2z m6.4 177.066667c-36.266667 0-64 25.6-64 57.6 0 32 29.866667 57.6 64 57.6 36.266667 0 64-25.6 64-57.6 0-32-27.733333-57.6-64-57.6z" fill="#2c2c2c" p-id="2071"></path></svg>