<?xml version="1.0" standalone="no"?><!DOCTYPE svg PUBLIC "-//W3C//DTD SVG 1.1//EN" "http://www.w3.org/Graphics/SVG/1.1/DTD/svg11.dtd"><svg t="1545276763265" class="icon" style="" viewBox="0 0 1024 1024" version="1.1" xmlns="http://www.w3.org/2000/svg" p-id="2603" xmlns:xlink="http://www.w3.org/1999/xlink" width="128" height="128"><defs><style type="text/css"></style></defs><path d="M512.4 458.8c26.3 0 47.8-8.3 64.6-24.8 16.8-16.5 25.2-36.8 25.2-60.8 0-25-8.7-46-25.9-63-17.3-17-38.8-25.6-64.6-25.6-26 0-47.6 8.3-64.8 25-17.1 16.7-25.7 36.6-25.7 59.8 0 26.2 8.5 47.7 25.4 64.4 16.8 16.7 38.7 25 65.8 25z m-1.9 55.6c-32.1 0-58.6 10.6-79.7 31.8-21.1 21.2-31.6 47.7-31.6 79.5 0 19.4 4.6 38.3 13.8 56.4 9.3 18.2 22.9 32.3 41.1 42.2 18.1 10 37.7 15 58.7 15 32.6 0 59.5-10.5 80.7-31.5 21.2-21 31.8-47.6 31.8-79.9 0-32.8-10.9-60-32.7-81.4-22-21.4-49.3-32.1-82.1-32.1zM512 64C264.6 64 64 264.6 64 512s200.6 448 448 448 448-200.6 448-448S759.4 64 512 64z m132.5 682.9c-33.6 32.3-77.8 48.5-132.5 48.5-54.8 0-99-16.2-132.5-48.7-33.6-32.4-50.4-72.9-50.4-121.3 0-36.1 9.2-66.4 27.4-90.7 18.3-24.4 44.4-40.9 78.2-49.8-28.3-10.4-49.2-25.1-62.9-44.3-13.6-19.2-20.4-42.2-20.4-68.9 0-40.4 14.5-74.3 43.6-101.9 29-27.5 67.7-41.3 115.9-41.3 48.5 0 87.5 14.1 117 42.2s44.3 62.4 44.3 102.8c0 25.8-6.8 48.2-20.3 67.2-13.5 19.1-34 33.8-61.5 44.1 34.1 11.1 60 29.1 77.8 53.8 17.8 24.7 26.7 54.3 26.7 88.6 0 47.6-16.8 87.5-50.4 119.7z" p-id="2604" fill="#d81e06"></path></svg>