<?xml version="1.0" standalone="no"?><!DOCTYPE svg PUBLIC "-//W3C//DTD SVG 1.1//EN" "http://www.w3.org/Graphics/SVG/1.1/DTD/svg11.dtd"><svg t="1545276029278" class="icon" style="" viewBox="0 0 1026 1024" version="1.1" xmlns="http://www.w3.org/2000/svg" p-id="3826" xmlns:xlink="http://www.w3.org/1999/xlink" width="128.25" height="128"><defs><style type="text/css"></style></defs><path d="M959.723972 263.647516a35.014739 35.014739 0 0 0-9.6128-10.727327 31.624718 31.624718 0 0 0-44.534661 7.523061 32.507052 32.507052 0 0 0-2.0433 33.807334 446.600455 446.600455 0 1 1-131.746438-147.582016l2.089739 1.486036a31.996227 31.996227 0 0 0 37.150917-52.057721l-1.02165-0.743019-0.510826-0.371509a511.986068 511.986068 0 1 0 150.414774 168.665161z m-159.888257 87.76904h-66.825211V260.350372a24.705359 24.705359 0 0 0-24.983991-24.612482H298.484097a24.612482 24.612482 0 0 0-24.612483 24.612482v91.066184H206.674894a24.612482 24.612482 0 0 0-24.612482 24.566044v136.204548a143.959802 143.959802 0 0 0 127.799153 142.845274 232.518299 232.518299 0 0 0 168.247213 104.626268v61.670522H371.207016a24.612482 24.612482 0 0 0-24.612483 24.612482 25.076869 25.076869 0 0 0 24.612483 24.566044h264.468087a24.612482 24.612482 0 1 0 0-49.178526h-107.273272v-62.042031a231.403771 231.403771 0 0 0 168.247213-104.626268 146.42105 146.42105 0 0 0 84.843406-40.401622l1.486037-1.114528a144.191995 144.191995 0 0 0 41.794781-100.957615V375.9826a25.169746 25.169746 0 0 0-24.983992-24.566044zM259.197002 578.269341a93.202362 93.202362 0 0 1-27.538117-66.082193v-111.45275h42.026975v134.439879a232.193228 232.193228 0 0 0 9.566361 61.345451 83.589562 83.589562 0 0 1-24.240973-18.018194z m424.588538-44.766855v1.671791a178.510154 178.510154 0 0 1-20.200811 78.945698l-0.371509 1.114527a180.228384 180.228384 0 0 1-318.429794 0l-0.743018-1.114527a179.67112 179.67112 0 0 1-19.829302-80.756805v-2.229055l-0.743018-246.124822h360.317452v248.168123z m91.437693-21.315338a95.33854 95.33854 0 0 1-27.166608 66.082193l-1.114527 1.114527a104.533391 104.533391 0 0 1-23.219323 16.903667 248.121684 248.121684 0 0 0 9.705677-61.113258v-134.672072h41.794781v111.45275z" fill="#2c2c2c" p-id="3827"></path></svg>