<?xml version="1.0" standalone="no"?><!DOCTYPE svg PUBLIC "-//W3C//DTD SVG 1.1//EN" "http://www.w3.org/Graphics/SVG/1.1/DTD/svg11.dtd"><svg t="1546417638425" class="icon" style="" viewBox="0 0 1024 1024" version="1.1" xmlns="http://www.w3.org/2000/svg" p-id="4742" xmlns:xlink="http://www.w3.org/1999/xlink" width="128" height="128"><defs><style type="text/css"></style></defs><path d="M870.4 443.733333c51.2-6.826667 92.16-47.786667 92.16-102.4 0-58.026667-44.373333-102.4-102.4-102.4l-682.666667 0c-58.026667 0-102.4 44.373333-102.4 102.4 0 51.2 40.96 95.573333 92.16 102.4l-75.093333 283.306667C58.026667 808.96 109.226667 887.466667 211.626667 887.466667l307.2 0 245.76 0 61.44 0c102.4 0 153.6-78.506667 122.88-160.426667L870.4 443.733333zM211.626667 832.853333c-30.72 0-54.613333-10.24-68.266667-27.306667-10.24-17.066667-13.653333-37.546667-3.413333-58.026667l0-3.413333 0-3.413333L252.586667 327.68l266.24 0 0 505.173333L211.626667 832.853333zM890.88 805.546667c-13.653333 17.066667-37.546667 27.306667-68.266667 27.306667l-71.68 0L665.6 327.68l119.466667 0 112.64 413.013333 0 3.413333 0 3.413333C904.533333 768 904.533333 788.48 890.88 805.546667z" p-id="4743" fill="#ffffff"></path></svg>