<?xml version="1.0" standalone="no"?><!DOCTYPE svg PUBLIC "-//W3C//DTD SVG 1.1//EN" "http://www.w3.org/Graphics/SVG/1.1/DTD/svg11.dtd"><svg t="1546505856659" class="icon" style="" viewBox="0 0 1024 1024" version="1.1" xmlns="http://www.w3.org/2000/svg" p-id="1726" xmlns:xlink="http://www.w3.org/1999/xlink" width="128" height="128"><defs><style type="text/css"></style></defs><path d="M703.48995 868.864C636.16195 911.872 557.82595 934.4 477.95395 934.4c-232.704 0-422.144-189.952-422.144-423.168 0-233.472 189.44-423.168 422.144-423.168S900.09795 277.76 900.09795 511.232v7.424h55.808v-7.424c0.256-126.976-50.176-249.088-140.032-338.688-89.6-89.856-211.2-140.288-337.92-140.288C350.97795 32 229.37795 82.432 139.77795 172.544c-43.776 43.776-78.592 95.488-102.4 152.32C12.80195 384 0.00195 447.232 0.00195 511.488-0.25405 638.464 50.17795 760.32 139.77795 850.176c89.6 89.856 211.2 140.544 338.176 140.288 111.104 0 218.624-38.656 304.384-109.568l15.872-13.312h-92.928l-1.792 1.28z m0 0" fill="#d81e06" p-id="1727"></path><path d="M997.37795 640.256H772.86595l59.392-62.976c9.728-10.496 9.472-26.88-0.512-36.864-4.864-4.864-11.264-7.424-17.92-7.424h-0.512c-6.912 0-13.568 3.072-18.176 8.192L693.76195 648.448c-1.024 1.28-1.792 2.304-2.816 4.352-0.768 1.024-1.536 2.304-2.304 3.84-2.56 6.4-2.56 13.568 0 19.712 0.768 1.792 1.792 3.072 3.072 5.12 0.512 0.768 1.024 2.048 2.304 3.328l101.376 107.264c4.864 5.12 11.264 7.936 18.176 7.936h0.512c6.656 0 13.312-2.56 17.92-7.424 10.24-10.24 10.496-26.624 0.768-37.12l-59.392-62.976h224.512c6.912 0 13.568-2.816 18.432-7.68 4.864-4.864 7.424-11.52 7.424-18.432s-2.56-13.568-7.424-18.432c-5.376-4.864-12.032-7.68-18.944-7.68m-377.344-102.4c15.36-0.256 27.648-12.8 27.648-27.904 0-7.424-2.816-14.592-7.936-19.712-5.12-5.376-12.288-8.192-19.712-8.448H500.22595v-15.36c0.512-1.024 1.024-2.304 1.28-3.328l116.736-124.672c10.496-11.008 10.496-28.416 0-39.424a27.308 27.308 0 0 0-19.712-8.448 27.308 27.308 0 0 0-19.712 8.448L472.32195 413.696 365.82595 299.008c-11.008-10.752-28.416-10.752-39.168 0-10.496 11.008-10.496 28.416 0 39.424l116.736 124.672c0.512 1.28 0.768 2.304 1.28 3.328v15.616H324.60995c-7.424 0-14.336 3.072-19.712 8.448-5.12 5.376-7.936 12.288-7.936 19.712 0 15.36 12.288 27.904 27.648 27.904h119.808v32.256H324.60995c-15.36 0.256-27.648 12.8-27.648 28.16s12.288 27.904 27.648 27.904h119.808v80.128c0 15.36 12.288 27.904 27.648 27.904 15.36-0.256 27.648-12.8 27.648-27.904v-80.128h119.808c15.36-0.256 27.648-12.8 27.648-27.904 0-15.36-12.288-27.904-27.648-28.16H499.71395v-32.256h120.32z m0 0" fill="#d81e06" p-id="1728"></path></svg>