<?xml version="1.0" standalone="no"?><!DOCTYPE svg PUBLIC "-//W3C//DTD SVG 1.1//EN" "http://www.w3.org/Graphics/SVG/1.1/DTD/svg11.dtd"><svg t="1545442292944" class="icon" style="" viewBox="0 0 1024 1024" version="1.1" xmlns="http://www.w3.org/2000/svg" p-id="1764" data-spm-anchor-id="a313x.7781069.0.i7" xmlns:xlink="http://www.w3.org/1999/xlink" width="128" height="128"><defs><style type="text/css"></style></defs><path d="M323.072 494.08l-34.816-43.008-34.816-43.52h139.264l-34.816 43.52z" p-id="1765" fill="#ffb22e"></path><path d="M347.88864 407.6032h-46.08v-328.192h46.08z" p-id="1766" fill="#ffb22e"></path><path d="M261.12 209.408c-76.288 0-138.24 61.952-138.24 138.24v465.408c0 76.288 61.952 138.24 138.24 138.24h505.344c76.288 0 138.24-61.952 138.24-138.24V727.04h-41.984v86.016c0 53.248-43.008 96.256-96.256 96.256H261.12c-53.248 0-96.256-43.008-96.256-96.256V347.648c0-53.248 43.008-96.256 96.256-96.256h35.84v-41.984h-35.84zM352.768 209.408h105.472v41.984H352.768zM766.464 209.408h-251.904v41.984h251.904c53.248 0 96.256 43.008 96.256 96.256V435.2h41.984V347.648c0-76.288-61.952-138.24-138.24-138.24zM862.72 478.72h41.984v204.8h-41.984z" p-id="1767" fill="#ffb22e"></path><path d="M862.72 435.2h-182.784c-79.872 0-144.896 65.024-144.896 144.896s65.024 144.896 144.896 144.896h224.768v-40.448h-41.984v-1.536h-182.784c-48.128 0-89.6-33.28-100.352-79.872 0-1.024-0.512-1.536-0.512-2.56-0.512-1.536-0.512-3.584-1.024-5.12-0.512-1.536-0.512-3.584-0.512-5.12-0.512-7.168-0.512-13.824 0-20.992 0-1.536 0.512-3.584 0.512-5.12 0.512-1.536 0.512-3.584 1.024-5.12 0-1.024 0.512-1.536 0.512-2.56 10.752-46.592 52.224-79.872 100.352-79.872h224.768v-40.448h-41.984V435.2z m-182.784 249.344c-48.128 0-89.6-33.28-100.352-79.872 10.752 46.592 52.224 79.872 100.352 79.872z m-101.888-87.552c0.512 1.536 0.512 3.584 1.024 5.12-0.512-1.536-0.512-3.072-1.024-5.12-0.512-1.536-0.512-3.584-0.512-5.12 0 2.048 0.512 3.584 0.512 5.12z" p-id="1768" fill="#ffb22e"></path><path d="M862.72 435.2h41.984v1.536h-41.984zM862.72 683.008h41.984v1.536h-41.984zM634.88 580.096c0 40.96 33.28 74.24 74.24 74.24s74.24-33.28 74.24-74.24-33.28-74.24-74.24-74.24-74.24 33.28-74.24 74.24z m106.496 0c0 17.92-14.336 32.256-32.256 32.256s-32.256-14.336-32.256-32.256 14.336-32.256 32.256-32.256 32.256 14.336 32.256 32.256z" p-id="1769" fill="#ffb22e"></path><path d="M487.936 74.24l34.816 43.52 34.816 43.008H418.304l34.816-43.008zM463.36 160.768h46.08v328.192h-46.08z" p-id="1770" fill="#ffb22e"></path></svg>