<?xml version="1.0" standalone="no"?><!DOCTYPE svg PUBLIC "-//W3C//DTD SVG 1.1//EN" "http://www.w3.org/Graphics/SVG/1.1/DTD/svg11.dtd"><svg t="1545276605465" class="icon" style="" viewBox="0 0 1024 1024" version="1.1" xmlns="http://www.w3.org/2000/svg" p-id="2288" xmlns:xlink="http://www.w3.org/1999/xlink" width="128" height="128"><defs><style type="text/css"></style></defs><path d="M512 0C229.192646 0 0 229.192646 0 512s229.192646 512 512 512 512-229.192646 512-512S794.807354 0 512 0zM822.63789 822.63789c-40.517986 40.517986-87.584333 72.031974-139.561951 94.132694-54.023981 22.919265-111.731415 34.378897-171.075939 34.378896-59.344524 0-117.051958-11.459632-171.075939-34.378896-52.38689-22.100719-99.453237-54.023981-139.561951-94.132694-40.517986-40.517986-72.031974-87.584333-94.132694-139.561951-22.919265-54.023981-34.378897-111.731415-34.378896-171.075939 0-59.344524 11.459632-117.051958 34.378896-171.075939 22.100719-52.38689 54.023981-99.453237 94.132694-139.561951 40.517986-40.517986 87.584333-72.031974 139.561951-94.132694 54.023981-22.919265 111.731415-34.378897 171.075939-34.378896 59.344524 0 117.051958 11.459632 171.075939 34.378896 52.38689 22.100719 99.453237 54.023981 139.561951 94.132694 40.517986 40.517986 72.031974 87.584333 94.132694 139.561951 22.919265 54.023981 34.378897 111.731415 34.378896 171.075939 0 59.344524-11.459632 117.051958-34.378896 171.075939-22.100719 52.38689-53.614708 99.453237-94.132694 139.561951z" p-id="2289" fill="#2c2c2c"></path><path d="M590.580336 431.782574c23.328537-10.641087 40.927258-25.3749 52.38689-44.201439 11.459632-18.417266 17.189448-40.927258 17.189449-66.711431 0-40.517986-13.505995-74.078337-40.927259-99.86251-27.01199-26.193445-62.618705-38.880895-105.592326-38.880895s-78.171063 13.096723-106.001598 38.880895c-27.01199 25.784173-40.927258 59.344524-40.927259 99.86251 0 26.193445 5.729816 48.294165 17.189449 66.711431 11.459632 18.417266 29.058353 33.151079 51.977618 44.201439-30.695444 14.32454-53.614708 33.560352-68.757794 57.707434-15.143086 24.147082-22.919265 54.023981-22.919265 88.81215 0 47.066347 15.961631 85.53797 47.47562 115.824141 31.513989 30.286171 72.441247 45.429257 121.963229 45.429257 49.521982 0 90.039968-15.143086 121.553957-45.429257 31.513989-30.286171 47.066347-68.757794 47.066347-115.824141 0-34.788169-7.776179-64.255795-22.919265-88.402877-14.733813-24.147082-37.653078-43.792166-68.757793-58.116707z m-157.979217-110.91287c0-23.328537 7.776179-42.564349 23.328537-58.116706 15.552358-15.552358 34.788169-22.919265 58.116707-22.919265 23.328537 0 42.564349 7.776179 58.116707 22.919265 15.143086 15.552358 22.919265 34.788169 22.919264 58.116706 0 24.556355-7.366906 44.610711-22.509992 59.753797-14.733813 15.143086-34.378897 22.919265-58.525979 22.919265s-43.792166-7.776179-58.525979-22.919265c-15.552358-15.552358-22.919265-35.197442-22.919265-59.753797z m153.886491 328.645884c-18.826539 19.235811-42.973621 29.058353-72.441247 29.058353-29.467626 0-53.614708-9.822542-72.441247-29.058353-18.826539-19.645084-28.649081-44.610711-28.649081-74.896883 0-31.923261 9.413269-57.707434 28.649081-77.761791 18.826539-20.054357 43.382894-30.286171 72.441247-30.286171 29.467626 0 53.614708 9.822542 72.441247 29.876899s28.239808 45.838529 28.239808 78.171063c-0.409273 30.695444-9.413269 55.661071-28.239808 74.896883z" p-id="2290" fill="#2c2c2c"></path></svg>