<?xml version="1.0" standalone="no"?><!DOCTYPE svg PUBLIC "-//W3C//DTD SVG 1.1//EN" "http://www.w3.org/Graphics/SVG/1.1/DTD/svg11.dtd"><svg t="1546508187073" class="icon" style="" viewBox="0 0 1096 1024" version="1.1" xmlns="http://www.w3.org/2000/svg" p-id="9065" xmlns:xlink="http://www.w3.org/1999/xlink" width="137" height="128"><defs><style type="text/css"></style></defs><path d="M609.44 677.824l-93.824-0.096 0.352 284.128c0.416 2.88 0.48 6.08 0.128 9.632-1.92 19.712-13.728 27.744-23.488 31.008a36.576 36.576 0 0 1-12.896 2.304h3.264l-2.496-0.096h-1.312l-179.936 0.064H226.432h3.264a36.608 36.608 0 0 1-36.288-36.736V506.88c0-20.288 16.096-36.736 36.288-36.736h-3.264c20.032 0 36.288 16.576 36.256 36.544l-0.384 429.184 184.384-0.096v-290.432c0-19.52 16.256-36.544 36.288-36.544h-3.264l73.44 0.032 88.928 0.032s33.568-1.216 36.928 33.248c0.384 3.872 0.256 7.36-0.256 10.432v283.232l184.608 0.096-0.384-429.184a36.512 36.512 0 0 1 36.256-36.544h-3.264c20.224 0 36.288 16.448 36.288 36.736v461.152c0 20.16-16.256 36.736-36.288 36.736h3.264-72.8l-179.936-0.064s-33.568 1.216-36.928-33.248a44.992 44.992 0 0 1-0.16-6.816V677.76z m476.448-155.584a36.192 36.192 0 0 1 0 51.328l2.304-2.304a36.64 36.64 0 0 1-51.872-0.576L548.512 82.336 57.216 573.824s-26.08 24.256-48.064-2.464 2.624-49.6 2.624-49.6L473.6 59.84 525.152 8.288l-2.304 2.304a36.544 36.544 0 0 1 51.328 0l511.712 511.712zM875.168 194.24c0 20.576-16.096 37.28-36.288 37.28h3.264a36.064 36.064 0 0 1-36.16-36.48l0.288-78.816-82.88 0.128s-35.616-1.28-32.256-35.744 36.928-33.248 36.928-33.248l13.536-0.064h100.544-3.264c20.032 0 36.288 16.992 36.288 37.28V194.24z" fill="#ffffff" p-id="9066"></path></svg>