<?xml version="1.0" standalone="no"?><!DOCTYPE svg PUBLIC "-//W3C//DTD SVG 1.1//EN" "http://www.w3.org/Graphics/SVG/1.1/DTD/svg11.dtd"><svg t="1546506375678" class="icon" style="" viewBox="0 0 1280 1024" version="1.1" xmlns="http://www.w3.org/2000/svg" p-id="2744" xmlns:xlink="http://www.w3.org/1999/xlink" width="160" height="128"><defs><style type="text/css"></style></defs><path d="M1042.272 695.616q-8.128-276.256-8.128-299.008-50.368-112.928-155.2-181.6t-231.968-68.672-231.968 68.672-155.2 181.6q0 28.448-0.8 102.784t-2.016 136.096-1.216 60.128q-60.128 0-97.088-43.072t-36.96-107.232q0-41.44 21.12-76.384t56.064-54.432q48.736-140.576 171.424-229.536t276.672-88.96 276.672 88.96 172.256 229.536q34.944 20.32 55.648 54.848t20.736 75.968q0 64.992-34.944 107.648t-95.072 42.656zM331.36 793.952q19.488-43.872 11.36-62.56-31.68-68.256-31.68-144.64 0-69.856 26.816-133.248 25.184-60.928 71.488-108.48t106.432-73.536q62.56-26.016 130.4-26.016t130.4 26.016q60.128 26.016 106.432 73.92 46.304 47.136 72.32 108.064 26.016 63.36 26.016 132.832t-26.016 132.832q-26.016 61.76-72.32 108.864t-106.432 73.12q-62.56 26.816-130.016 26.816-93.44 0-171.424-47.936l-0.8-0.8-0.8 0q-3.264-2.432-8.928 0.8-54.432 25.184-112.928 25.184-34.112 0-64.992-9.76l-40.64-12.992 35.744-22.752q29.248-17.856 49.568-65.792zM351.68 865.44q26.816 0 55.648-7.296t39.392-12.608 15.424-8.128 10.176-2.432 10.176 3.648q73.92 50.368 164.128 50.368 79.616 0 148.288-40.64t108.064-110.112 39.392-151.52-39.392-151.52-108.064-110.112-148.704-40.64-148.704 40.64-108.064 110.112-39.392 151.52q0 67.424 27.616 128.384 15.424 34.944-10.56 95.072-13.792 30.88-33.312 54.432 8.928 0.8 17.888 0.8zM508.064 539.616q19.104 0 32.512 13.792t13.408 33.312-13.408 33.312-32.512 13.792-32.512-13.792-13.408-33.312 13.408-33.312 32.512-13.792zM655.936 539.616q19.104 0 32.512 13.792t13.408 33.312-13.408 33.312-32.512 13.792-32.512-13.792-13.408-33.312 13.408-33.312 32.512-13.792zM803.008 539.616q19.104 0 32.896 13.792t13.792 33.312-13.792 33.312-32.896 13.792-32.512-13.792-13.408-33.312 13.408-33.312 32.512-13.792z" p-id="2745" fill="#d81e06"></path></svg>