<?xml version="1.0" standalone="no"?><!DOCTYPE svg PUBLIC "-//W3C//DTD SVG 1.1//EN" "http://www.w3.org/Graphics/SVG/1.1/DTD/svg11.dtd"><svg t="1546505918528" class="icon" style="" viewBox="0 0 1024 1024" version="1.1" xmlns="http://www.w3.org/2000/svg" p-id="1926" xmlns:xlink="http://www.w3.org/1999/xlink" width="128" height="128"><defs><style type="text/css"></style></defs><path d="M521.89866667 685.28355555c-17.408 0-28.89955555-11.60533333-28.89955556-28.89955555v-260.55111111c0-17.408 11.60533333-28.89955555 28.89955556-28.89955556 17.408 0 28.89955555 11.60533333 28.89955555 28.89955556v260.55111111c-5.68888889 17.29422222-17.29422222 28.89955555-28.89955555 28.89955555z m0 0" p-id="1927" fill="#d81e06"></path><path d="M649.32977778 488.448h-260.55111111c-17.408 0-28.89955555-11.60533333-28.89955556-28.89955555 0-17.408 11.60533333-28.89955555 28.89955556-28.89955556h260.55111111c17.408 0 28.89955555 11.60533333 28.89955555 28.89955556s-11.60533333 28.89955555-28.89955555 28.89955555z m0 0M649.32977778 592.66844445h-260.55111111c-17.408 0-28.89955555-11.60533333-28.89955556-28.89955556 0-17.408 11.60533333-28.89955555 28.89955556-28.89955556h260.55111111c17.408 0 28.89955555 11.60533333 28.89955555 28.89955556s-11.60533333 28.89955555-28.89955555 28.89955556z m0 0M521.89866667 424.73244445c-5.80266667 0-17.408 0-23.21066667-5.80266667L377.17333333 297.41511111c-11.60533333-11.60533333-11.60533333-28.89955555 0-40.50488889 11.60533333-11.60533333 28.89955555-11.60533333 40.50488889 0L539.30666667 378.42488889c11.60533333 11.60533333 11.60533333 28.89955555 0 40.50488889-5.80266667 5.80266667-11.60533333 5.80266667-17.408 5.80266667z m0 0" p-id="1928" fill="#d81e06"></path><path d="M521.89866667 424.73244445c-5.80266667 0-17.408 0-23.21066667-5.80266667-11.60533333-11.60533333-11.60533333-28.89955555 0-40.50488889l121.62844445-121.62844444c11.60533333-11.60533333 28.89955555-11.60533333 40.50488888 0 11.60533333 11.60533333 11.60533333 28.89955555 0 40.50488888L539.30666667 418.92977778c-5.80266667 5.80266667-11.60533333 5.80266667-17.408 5.80266667z m0 0" p-id="1929" fill="#d81e06"></path><path d="M510.74844445 1018.99377778C231.08266667 1018.99377778 2.27555555 790.18666667 2.27555555 510.63466667 2.27555555 230.96888889 231.08266667 2.16177778 510.74844445 2.16177778c279.66577778 0 508.47288889 228.80711111 508.47288888 508.47288889 0 25.37244445 0 50.85866667-6.37155555 82.60266666 0 19.11466667-19.11466667 31.744-38.11555556 25.37244445-19.11466667 0-31.744-19.11466667-25.37244444-38.11555556 6.37155555-25.37244445 6.37155555-44.48711111 6.37155555-69.85955555 0-247.92177778-197.06311111-444.87111111-444.87111111-444.87111112-247.92177778 0-444.87111111 203.43466667-444.87111111 451.24266667 0 247.92177778 197.06311111 444.87111111 444.87111111 444.87111111 25.37244445 0 57.23022222 0 82.60266667-6.37155555 19.11466667-6.37155555 31.744 6.37155555 38.11555556 25.37244444 6.37155555 19.11466667-6.37155555 31.744-25.37244445 38.11555556h-95.45955555z m0 0" p-id="1930" fill="#d81e06"></path><path d="M956.07466667 789.504H666.624c-17.408 0-28.89955555-11.60533333-28.89955555-28.89955555 0-17.408 11.60533333-28.89955555 28.89955555-28.89955556h289.45066667c17.408 0 28.89955555 11.60533333 28.89955555 28.89955556 0.11377778 17.29422222-17.29422222 28.89955555-28.89955555 28.89955555z m0 0" p-id="1931" fill="#d81e06"></path></svg>