<?xml version="1.0" standalone="no"?><!DOCTYPE svg PUBLIC "-//W3C//DTD SVG 1.1//EN" "http://www.w3.org/Graphics/SVG/1.1/DTD/svg11.dtd"><svg t="1546418672590" class="icon" style="" viewBox="0 0 1024 1024" version="1.1" xmlns="http://www.w3.org/2000/svg" p-id="6315" xmlns:xlink="http://www.w3.org/1999/xlink" width="128" height="128"><defs><style type="text/css"></style></defs><path d="M433.769698 96.115154c2.659575-14.692645 19.533912-31.417578 37.042698-31.417578 17.502647 0 60.952271 0.160659 79.237748 0 18.285477-0.154519 37.160378 12.849669 40.324444 31.417578 3.157926 18.568933 12.344155 72.829798 14.998614 88.144614 2.659575 15.314816 10.316983 21.100595 10.316983 21.100595s24.226798 10.472526 35.637697 15.00373c11.405782 4.531204 22.032828-2.815118 22.032828-2.815118s64.079498-45.638479 76.42877-54.383662c12.344155-8.75644 35.894547-8.87412 45.476796 0.466628 9.582249 9.340748 46.104084 44.854625 60.480527 59.542154 14.38156 14.692645 14.209644 38.929677 5.158492 51.578777-9.051152 12.643984-44.854625 62.668358-51.573661 72.203534-6.719035 9.529037-7.818067 19.442837-4.686747 27.191319 3.132343 7.748482 11.25024 27.81963 12.65524 31.417578 1.410117 3.592832 9.008173 10.970877 16.413848 12.187589 7.399535 1.216712 71.747139 11.807942 91.672977 15.089688s33.852026 21.014637 33.830537 44.303063c-0.016373 18.515721 0.064468 48.994926-0.097214 70.324742-0.155543 21.336979-10.911525 38.689199-33.32093 42.555254-22.408382 3.865031-80.134165 13.785995-89.276392 15.587016-9.14325 1.796927-15.872518 6.316875-19.379392 13.749156-3.501757 7.43228-9.689696 20.479447-12.499698 26.881257-2.815118 6.408973-3.689023 18.500371 1.871629 26.259087 5.565768 7.753599 44.700106 62.201729 52.983778 74.862086 8.279579 12.660357 14.12471 36.31308-4.691864 54.855407-18.810433 18.542327-36.334569 35.867941-52.512033 51.573661-16.172347 15.705719-37.974931 16.976667-55.322035 4.686747-17.347104-12.285826-58.608898-41.494085-67.987508-48.292938-9.373494-6.798853-16.199977-11.849898-29.535716-6.090725-13.33574 5.753033-20.397583 8.671505-28.60246 12.654217-8.203854 3.988852-12.643984 8.209994-14.537102 19.695594-1.888002 11.486624-11.330058 69.236967-15.159273 89.23853-3.828192 20.006679-18.28036 33.315813-48.447457 33.44475-30.163004 0.134053-42.511252 0.317225-65.640042 0-23.132883-0.311085-39.299091-12.778037-43.295105-35.942643-3.993968-23.170745-12.108794-70.722809-14.843071-83.768952-2.739393-13.052284-6.059002-20.226691-17.507763-25.009628-11.446715-4.777821-17.109697-7.18464-23.443968-9.689696-6.327109-2.497893-18.279337-5.002949-29.690236 3.127227-11.416015 8.134269-50.639381 36.103302-70.018773 49.702032-19.380415 13.59259-42.496926 10.462293-56.888718-3.753491-14.386676-14.215784-40.007219-39.386072-52.200948-52.201971-12.188612-12.814876-17.813732-35.64793-5.313011-53.134204 12.503791-17.492414 36.886132-51.573661 49.074744-68.765222 12.192706-17.197701 9.849332-20.479447 5.313011-33.760952-4.531204-13.281504-6.017046-14.537102-9.999758-24.066139-3.985782-9.53313-9.914824-14.487984-22.815658-16.568367-12.907997-2.080384-52.830282-8.440238-79.711539-13.43807-26.881257-5.003972-40.946615-18.757221-40.946615-44.700106l0-68.920765c0-21.726859 12.445462-40.978338 32.679316-44.581402 20.225667-3.608181 64.003773-10.755982 82.502098-14.182015 19.383485-3.598971 24.584956-6.257524 29.696376-18.129934 5.116536-11.87241 9.53313-21.722766 12.193729-29.540833 2.654459-7.812951 0.692779-14.977124-8.910959-28.601437-9.598622-13.621242-30.008484-42.661678-44.072819-62.042094-14.064334-19.383485-16.564274-43.76685-0.627287-59.391728 15.94722-15.625901 42.512275-41.572879 54.388779-53.761491 11.87855-12.193729 33.003704-17.405433 52.512033-3.753491 19.513445 13.657058 51.263599 35.947759 67.204678 46.731371 15.94108 10.783611 21.324699 12.509931 32.350834 7.968493 11.029205-4.541437 31.883183-13.126985 31.883183-13.126985s9.512664-3.39431 12.193729-19.690478C421.447032 169.83523 431.115239 110.802683 433.769698 96.115154L433.769698 96.115154zM446.89566 189.41826c-3.662417 22.639649-12.653194 36.334569-30.94481 43.600051-18.284453 7.266505-11.142792 4.488225-29.53367 12.194752-18.393947 7.70448-37.744687 5.388736-53.924197-6.096864-16.172347-11.4856-63.413325-45.643595-70.325765-50.635288-6.911417-4.997832-14.773486-3.989875-20.162222 0.938373-5.387713 4.922108-44.307156 44.308179-51.572637 51.573661s-7.035237 12.424996-0.938373 21.094455c6.096864 8.676622 36.152421 50.405044 48.763659 67.987508 12.607145 17.583488 15.935963 37.036558 8.436145 54.855407-7.501865 17.818849-4.289704 10.5636-12.188612 30.006438-7.897885 19.443861-27.192343 28.367099-47.82017 31.884206-20.63499 3.51813-75.013536 12.719709-80.178167 13.59873-5.168725 0.873904-13.597706 4.05946-13.597706 14.530963l0 72.674256c0 7.501865 4.375662 13.597706 13.126985 15.475475 8.751323 1.870606 68.872669 11.861154 84.39624 14.530963 15.523571 2.675948 33.443727 9.378611 42.194027 29.540833 8.751323 20.161199 4.691864 10.831707 13.599753 31.411438 8.905843 20.585871 3.044339 39.851676-10.784635 58.732718-13.828974 18.881042-39.128198 55.323058-45.010168 63.644593-5.882993 8.316418-6.563493 15.94108 0 22.504572 6.562469 6.563493 47.04348 47.04348 51.108056 51.101916 4.05946 4.064576 12.814876 5.163608 20.156082 0.471745 7.346323-4.691864 58.995708-42.415061 71.735883-51.573661 12.746315-9.163716 31.72764-14.064334 56.265524-4.220119 24.537884 9.845239 17.990764 7.309483 30.008484 12.188612 12.016697 4.884245 24.14698 23.208608 27.190296 44.54354 3.051502 21.331862 11.021019 71.73179 14.065358 81.582145 3.051502 9.844215 7.035237 13.125962 15.943127 13.125962l71.269255 0c8.906866 0 13.59873-3.983735 15.00373-12.187589 1.405001-8.204877 9.281396-54.711121 13.126985-77.366119 3.844565-22.644765 11.255356-42.818244 37.042698-52.978661s6.944163-2.803862 24.376201-9.845239c17.438178-7.040354 34.854867-6.874578 53.483152 6.606471 27.267044 19.738573 63.128846 43.444508 70.770904 48.715564 7.635918 5.276172 13.593613 6.799876 20.62885 0 7.035237-6.793737 45.948541-45.943424 52.040289-52.040289 6.096864-6.096864 5.319151-13.125962 1.410117-19.222826s-47.41801-66.299052-55.327152-77.362026-8.440238-31.647822-2.810002-46.420285c5.62512-14.76837 7.260365-19.240222 11.63091-29.605301 6.02114-14.262856 22.515829-27.605759 42.522508-30.805641 20.00054-3.207045 84.89459-14.896283 89.47389-15.695486 4.5793-0.804319 9.91994-6.176682 9.689696-12.504814-0.236384-6.328132 0-68.218776 0-75.017629s-3.51813-13.362346-12.193729-14.691622c-8.671505-1.32416-74.133492-12.188612-93.147563-15.314816-19.008955-3.126204-31.255896-21.255114-36.881016-35.01041-5.62512-13.749156-3.056619-7.346323-10.005898-24.066139-6.944163-16.719817-5.936205-36.56993 5.941322-53.761491s48.329777-68.58819 52.200948-74.079256c3.872195-5.496183 3.356448-10.242282-1.254575-15.00987-4.605906-4.761448-45.476796-45.476796-52.195831-52.195831-6.718012-6.724152-13.989633-7.035237-19.379392-3.126204-5.393852 3.909034-76.213875 52.91931-82.83058 57.514982-6.616704 4.589533-28.758003 7.266505-39.702274 2.498916-10.939154-4.767588-23.443968-9.807376-34.376983-14.376443-10.939154-4.574183-25.948001-22.821798-28.056014-35.947759-2.112106-13.126985-15.293326-88.235688-16.413848-94.708107-1.120521-6.473441-8.048311-10.161441-12.423973-10.081623-4.375662 0.075725-69.859137 0-76.659014 0s-11.958368 7.57759-12.891624 11.4856C460.028785 107.986541 450.559099 166.778611 446.89566 189.41826L446.89566 189.41826zM697.666304 511.623935c0 102.551756-83.136549 185.693422-185.694445 185.693422-102.553803 0-185.688305-83.141665-185.688305-185.693422 0-102.55278 83.135525-185.694445 185.688305-185.694445C614.530779 325.92949 697.666304 409.071155 697.666304 511.623935L697.666304 511.623935zM511.972882 296.861425c-118.607447 0-214.763533 96.149946-214.763533 214.76251 0 118.607447 96.156086 214.763533 214.763533 214.763533 118.612563 0 214.763533-96.156086 214.763533-214.763533C726.741532 393.011371 630.585446 296.861425 511.972882 296.861425L511.972882 296.861425zM511.972882 296.861425" p-id="6316" fill="#ffffff"></path></svg>