<?xml version="1.0" standalone="no"?><!DOCTYPE svg PUBLIC "-//W3C//DTD SVG 1.1//EN" "http://www.w3.org/Graphics/SVG/1.1/DTD/svg11.dtd"><svg t="1546506492557" class="icon" style="" viewBox="0 0 1024 1024" version="1.1" xmlns="http://www.w3.org/2000/svg" p-id="3718" xmlns:xlink="http://www.w3.org/1999/xlink" width="128" height="128"><defs><style type="text/css"></style></defs><path d="M816.1 515.1c-12.2 0-22.1 9.8-22.1 22v208c0 26.7-21.8 48.4-48.6 48.4h-466c-26.8 0-48.6-21.7-48.6-48.4V308.3c0-26.7 21.8-48.4 48.6-48.4h151.9c12.2 0 22.1-9.9 22.1-22s-9.9-22-22.1-22H279.4c-51.1 0-92.8 41.5-92.8 92.4V745c0 51 41.6 92.4 92.8 92.4h466c51.1 0 92.8-41.4 92.8-92.4V537c0-12.1-9.9-21.9-22.1-21.9zM352.7 644c-2.2 11.9 5.8 23.4 17.7 25.6 1.3 0.2 2.7 0.4 4 0.4 10.5 0 19.8-7.4 21.7-18 0.2-0.9 17.7-93.5 78.7-185.4 35.5-53.5 78.5-96.1 127.8-126.5 47.1-29 100.3-47.1 158.7-54L689.4 360c-8.5 8.7-8.3 22.6 0.5 31.1 4.3 4.1 9.8 6.2 15.4 6.2 5.8 0 11.5-2.2 15.9-6.7L832.5 276c0.1-0.1 0.2-0.2 0.2-0.3 0.1-0.1 0.2-0.2 0.3-0.4 0.1-0.1 0.2-0.3 0.4-0.4v-0.1c0.1-0.1 0.2-0.3 0.3-0.4 0.1-0.1 0.2-0.3 0.3-0.4 0.1-0.1 0.2-0.3 0.3-0.4 0.1-0.2 0.2-0.3 0.4-0.5 0.1-0.1 0.1-0.2 0.2-0.3 0.1-0.1 0.1-0.2 0.2-0.3l0.1-0.1v-0.1c0.1-0.1 0.1-0.2 0.2-0.3l0.3-0.6c0.1-0.1 0.1-0.2 0.2-0.3 0 0 0-0.1 0.1-0.1 0.1-0.2 0.2-0.3 0.2-0.5 0.1-0.1 0.1-0.3 0.2-0.4l0.3-0.6c0.1-0.2 0.1-0.3 0.2-0.5s0.1-0.3 0.2-0.5 0.1-0.3 0.2-0.5 0.1-0.3 0.1-0.5c0.1-0.2 0.1-0.4 0.2-0.6 0-0.2 0.1-0.3 0.1-0.5 0.1-0.2 0.1-0.4 0.2-0.6 0-0.1 0.1-0.2 0.1-0.4v-0.1c0-0.2 0.1-0.4 0.1-0.6 0-0.1 0-0.2 0.1-0.3v-0.3c0-0.1 0-0.3 0.1-0.4v-0.3-0.4-0.3-0.2-0.1-0.6-0.1-0.3-0.7-1.1-0.1-0.2c0-0.3 0-0.5-0.1-0.8v-0.2-0.1c0-0.2-0.1-0.4-0.1-0.7v-0.3-0.1c0-0.2-0.1-0.4-0.1-0.6 0-0.1-0.1-0.3-0.1-0.4v-0.1-0.1c0-0.1-0.1-0.3-0.1-0.4 0-0.2-0.1-0.5-0.2-0.7 0-0.1 0-0.2-0.1-0.3-0.1-0.3-0.2-0.5-0.2-0.8v-0.2c-0.1-0.2-0.1-0.4-0.2-0.6v-0.1c0-0.1-0.1-0.2-0.1-0.2v-0.1c-0.1-0.2-0.1-0.4-0.2-0.6 0-0.1-0.1-0.2-0.1-0.3l-0.3-0.6c-0.2-0.4-0.4-0.8-0.7-1.3-0.2-0.3-0.3-0.6-0.5-0.9l-0.1-0.1c-0.1-0.2-0.2-0.3-0.3-0.5 0-0.1-0.1-0.2-0.2-0.2-0.1-0.1-0.1-0.2-0.2-0.3-0.1-0.1-0.1-0.1-0.1-0.2s-0.1-0.1-0.1-0.2-0.1-0.1-0.1-0.2c-0.1-0.2-0.2-0.3-0.4-0.5l-0.2-0.2-0.1-0.1c-0.1-0.2-0.3-0.3-0.5-0.5l-0.1-0.1c-0.2-0.2-0.4-0.4-0.6-0.7l-0.1-0.1-0.7-0.7c-0.3-0.2-0.5-0.4-0.8-0.7-0.2-0.2-0.5-0.4-0.8-0.6l-0.1-0.1c-0.2-0.2-0.5-0.3-0.7-0.5l-0.2-0.2c-0.1-0.1-0.2-0.2-0.4-0.2-0.1-0.1-0.2-0.1-0.3-0.2-0.1-0.1-0.2-0.1-0.3-0.2-0.1-0.1-0.2-0.1-0.3-0.2-0.1-0.1-0.2-0.1-0.3-0.2-0.1-0.1-0.3-0.1-0.4-0.2l-0.6-0.3c-0.1-0.1-0.3-0.1-0.4-0.2-0.2-0.1-0.3-0.2-0.5-0.2-0.2-0.1-0.3-0.1-0.5-0.2s-0.3-0.1-0.5-0.2-0.4-0.1-0.6-0.2c-0.1-0.1-0.3-0.1-0.4-0.2-0.1 0-0.2-0.1-0.3-0.1l-162-53.1c-11.6-3.8-24.1 2.4-27.9 14-3.8 11.5 2.4 24 14 27.8l65.2 21.5c-47.9 10.3-92.4 28.1-133 53.1C524.6 336.3 477 383.3 438 442.2c-65.9 99.4-84.5 197.6-85.3 201.8z" p-id="3719" fill="#d81e06"></path></svg>