<?xml version="1.0" standalone="no"?><!DOCTYPE svg PUBLIC "-//W3C//DTD SVG 1.1//EN" "http://www.w3.org/Graphics/SVG/1.1/DTD/svg11.dtd"><svg t="1545473089935" class="icon" style="" viewBox="0 0 1024 1024" version="1.1" xmlns="http://www.w3.org/2000/svg" p-id="2311" xmlns:xlink="http://www.w3.org/1999/xlink" width="128" height="128"><defs><style type="text/css"></style></defs><path d="M259.45 617.176c-33.684-0.011-63.936-7.04-89.913-20.892-0.226-0.12-0.451-0.244-0.673-0.372l-0.889-0.509a191.053 191.053 0 0 1-99.737-167.725c0-19.719 3.065-39.345 9.109-58.355l0.008 0.002c1.016-2.907 7.621-18.983 78.301-187.386 7.873-22.243 22.193-40.693 41.456-53.398 18.955-12.501 42.307-19.109 67.531-19.109h496.794c52.23 0.116 96.075 29.415 111.947 74.702 62.671 157.121 71.923 180.913 73.608 185.754l0.028-0.009c5.798 18.24 8.819 37.991 8.737 57.12v0.081c-0.006 69.973-38.146 134.276-99.535 167.819-26.158 14.338-56.845 21.706-91.179 21.885h-0.13c-46.584 0-91.301-16.745-125.981-47.15l-1.119-0.981-1.119 0.982c-34.253 30.074-78.335 46.851-124.128 47.24-0.196 0.003-0.393 0.001-0.589-0.002-45.997-0.327-90.249-17.058-124.631-47.12l-1.12-0.979-1.117 0.982c-34.634 30.439-79.232 47.28-125.578 47.421l-0.081-0.001z m-66.066-64.84c18.593 9.836 40.813 14.828 66.053 14.84 34.227-0.117 67.134-12.538 92.666-34.978l17.579-15.45c9.421-8.279 23.519-8.298 32.96-0.042l17.618 15.405c25.371 22.184 58.079 34.526 92.107 34.763 33.724-0.34 66.152-12.698 91.34-34.812l17.6-15.454c9.432-8.28 23.538-8.286 32.976-0.013l17.613 15.44c25.559 22.408 58.569 34.748 92.953 34.748 25.867-0.134 48.556-5.432 67.372-15.746a141.198 141.198 0 0 0 73.539-123.96v-0.121-0.118c0.065-13.898-2.111-28.249-6.296-41.522-3.247-8.76-45.088-113.884-72.729-183.183-0.149-0.374-0.29-0.752-0.421-1.133-8.66-25.184-34.146-41.5-64.932-41.569H264.644c-30.705 0-53.308 14.451-62.013 39.648-0.176 0.51-0.369 1.014-0.578 1.512-29.255 69.703-73.233 174.612-77.293 184.635-4.328 13.868-6.521 28.139-6.521 42.427a141.073 141.073 0 0 0 73.848 123.946c0.173 0.094 0.344 0.189 0.515 0.287l0.782 0.45z m560.203-175.464H270.413c-13.807 0-25-11.193-25-25s11.193-25 25-25h483.174c13.807 0 25 11.193 25 25s-11.193 25-25 25z m-525.54 537.696c-56.469 0-102.397-45.869-102.397-102.251l-0.212-161.766c-0.018-13.808 11.16-25.015 24.967-25.033h0.033c13.792 0 24.981 11.171 25 24.967l0.212 161.799c0 28.845 23.498 52.284 52.381 52.284l568.278-0.359c28.795-0.062 52.253-23.588 52.253-52.441l-0.06-164.714c-0.005-13.807 11.184-25.004 24.991-25.009h0.009c13.804 0 24.995 11.187 25 24.991l0.06 164.723c0 56.372-45.839 102.327-102.183 102.45l-568.332 0.359z" p-id="2312" fill="#8a8a8a"></path></svg>