<?xml version="1.0" standalone="no"?><!DOCTYPE svg PUBLIC "-//W3C//DTD SVG 1.1//EN" "http://www.w3.org/Graphics/SVG/1.1/DTD/svg11.dtd"><svg t="1546502631257" class="icon" style="" viewBox="0 0 1079 1024" version="1.1" xmlns="http://www.w3.org/2000/svg" p-id="3664" xmlns:xlink="http://www.w3.org/1999/xlink" width="134.875" height="128"><defs><style type="text/css"></style></defs><path d="M857.945946 857.945946a221.405405 221.405405 0 1 1 0-442.810811 221.405405 221.405405 0 0 1 0 442.810811z m0-45.88627a175.519135 175.519135 0 1 0 0-351.038271 175.519135 175.519135 0 0 0 0 351.038271z" fill="#d81e06" p-id="3665"></path><path d="M738.165622 1017.219459l-39.520865-21.199567v-227.853838l51.476757 15.138595v167.161081l96.366702-59.336649h27.537298l96.034594 59.170595-1.107027-166.662919 51.476757-0.332108 1.439135 212.549189-39.520865 21.365621-122.077405-75.222486zM857.945946 747.243243a110.702703 110.702703 0 1 1 0-221.405405 110.702703 110.702703 0 0 1 0 221.405405z m0-55.351351a55.351351 55.351351 0 1 0 0-110.702703 55.351351 55.351351 0 0 0 0 110.702703z" fill="#d81e06" p-id="3666"></path><path d="M745.472 972.384865l-10.073946 47.657513H27.897081l-2.214054-996.324324h940.972973V484.324324L916.396973 442.810811V71.375568H76.052757l1.992648 901.009297z" fill="#d81e06" p-id="3667"></path><path d="M192.484324 362.357622v-55.351352h498.162162v55.351352zM190.325622 541.336216v-55.351351h387.459459v55.351351zM190.325622 728.700541V674.732973h221.405405v53.939892z" fill="#d81e06" p-id="3668"></path></svg>