<?xml version="1.0" standalone="no"?><!DOCTYPE svg PUBLIC "-//W3C//DTD SVG 1.1//EN" "http://www.w3.org/Graphics/SVG/1.1/DTD/svg11.dtd"><svg t="1545443203444" class="icon" style="" viewBox="0 0 1024 1024" version="1.1" xmlns="http://www.w3.org/2000/svg" p-id="8023" xmlns:xlink="http://www.w3.org/1999/xlink" width="128" height="128"><defs><style type="text/css"></style></defs><path d="M728.998 62.977c38.613 0 69.962 31.25 69.962 69.755v341.814l6.694-16.299-396.839 402.227 16.647-6.955H145.251c-38.648 0-69.948-31.124-69.948-69.529V39.715L51.965 62.977h677.033z m-700.38-46.51V783.99c0 64.117 52.218 116.035 116.633 116.035h289.994l6.864-6.955 396.844-402.227 6.693-6.78V132.733c0-64.173-52.232-116.263-116.648-116.263H28.618v-0.001z m753.837 588.098l-16.51 16.44 16.51 16.441 93.373 93.01 16.503 16.44 16.512-16.44 70.026-69.757 16.512-16.44-16.512-16.441-93.373-93.01-16.503-16.439-16.512 16.44-70.026 69.756z m70.026-36.875l93.373 93.003v-32.875l-70.026 69.75h33.015l-93.379-93.002v32.88l70.032-69.756H852.48zM525.677 860.325l-4.998 4.983-1.389 6.901-23.345 116.256-6.865 34.197 34.333-6.835 116.718-23.253 6.936-1.381 4.99-4.97 256.785-255.768 16.505-16.441-16.505-16.447-93.379-93-16.505-16.442-16.505 16.441-256.776 255.759z m256.778-222.879l93.373 93.001v-32.88L619.05 953.334l11.926-6.357-116.719 23.246 27.47 27.364 23.345-116.259-6.385 11.885 256.778-255.767h-33.01zM433.494 613.65c17.6 0 31.875 14.204 31.875 31.74v8.409c0 17.53-14.146 31.734-31.875 31.734-17.616 0-31.891-14.198-31.891-31.734v-8.408c0.008-17.529 14.156-31.741 31.89-31.741zM285.396 359.719s2.5 21.931 27.106 21.931c24.6 0 26.053-21.931 26.053-21.931-1.625-71.009 31.408-104.73 99.026-101.375 45.012 5.063 68.326 30.366 69.891 75.993-3.118 20.32-20.207 46.6-50.61 78.677-40.257 40.563-60.392 76.888-60.392 108.965v32.902s3.084 19.614 25.342 19.614c22.25 0 25.34-19.614 25.34-19.614v-22.849c0-26.801 19.273-59.033 57.908-96.321 40.406-37.067 60.464-70.93 60.464-101.375-3.334-84.41-47.492-128.398-132.832-131.823-98.175-1.635-147.296 50.762-147.296 157.206z m0 0" fill="#ffb22e" p-id="8024"></path></svg>