<?xml version="1.0" standalone="no"?><!DOCTYPE svg PUBLIC "-//W3C//DTD SVG 1.1//EN" "http://www.w3.org/Graphics/SVG/1.1/DTD/svg11.dtd"><svg t="1546417888501" class="icon" style="" viewBox="0 0 1024 1024" version="1.1" xmlns="http://www.w3.org/2000/svg" p-id="5533" xmlns:xlink="http://www.w3.org/1999/xlink" width="128" height="128"><defs><style type="text/css"></style></defs><path d="M64.8192 174.2336c3.9424-38.2464 41.3184-66.6112 78.8992-65.2288 226.816-0.3072 453.6832-0.3584 680.5504 0.0512 37.5296-1.3824 74.1888 27.4432 78.4384 65.3824 2.3552 31.3344 0.3584 62.8736 0.9728 94.3616h-839.68c0.5632-31.5392-1.2288-63.1296 0.8192-94.5664zM64 381.4912c279.9104-0.0512 559.7696-0.0512 839.68 0 0.0512 41.0112-0.0512 82.0224 0.0512 123.0336-53.4016-46.4384-126.5152-69.7856-196.9152-60.7744-73.1648 8.0384-141.3632 50.6368-181.504 112.2816-41.9328 63.0272-52.6848 145.152-29.44 217.088-119.296-0.1024-238.592 0.1024-357.888-0.0512-30.1056 0.1024-58.624-20.1216-69.0688-48.1792-6.2976-15.616-4.9152-32.7168-5.0176-49.152 0.2048-98.0992 0-196.1472 0.1024-294.2464z" fill="#ffffff" p-id="5534"></path><path d="M683.264 480.256c52.736-12.7488 110.2336-6.3488 158.0032 19.712 57.344 30.3616 100.608 86.3744 114.3296 149.8624 10.3424 49.408 3.4304 102.5536-20.8896 146.9952-30.5664 59.9552-90.4192 103.6288-156.5696 115.4048-52.1216 9.1136-107.7248 0.8704-153.5488-26.112-68.352-38.7072-113.3568-115.7632-111.3088-194.56 0.4096-98.2016 75.1616-188.6208 169.984-211.3024m50.0736 63.3344c-44.544 44.288-88.8832 88.832-133.3248 133.2736-10.6496 8.6016-11.3152 25.4976-0.6656 34.4064 45.2096 45.5168 90.88 90.624 135.936 136.2432 11.6736 13.5168 37.3248 4.9664 38.5536-12.8512 1.536-32.6144 0-65.3312 0.6144-97.9968 38.9632 0.512 74.1888 26.0096 88.6784 61.9008 19.712-30.6176 25.1392-70.6048 9.9328-104.192-16.2816-39.2192-57.088-63.8976-98.8672-65.4848-0.1536-25.1392 1.1776-50.3296-0.3584-75.4688-3.4304-18.0736-29.0816-24.1664-40.4992-9.8304z" fill="#ffffff" p-id="5535"></path></svg>