<?xml version="1.0" standalone="no"?><!DOCTYPE svg PUBLIC "-//W3C//DTD SVG 1.1//EN" "http://www.w3.org/Graphics/SVG/1.1/DTD/svg11.dtd"><svg t="1545443047605" class="icon" style="" viewBox="0 0 1024 1024" version="1.1" xmlns="http://www.w3.org/2000/svg" p-id="5167" xmlns:xlink="http://www.w3.org/1999/xlink" width="128" height="128"><defs><style type="text/css"></style></defs><path d="M937.64933 245.735727c-11.736299-11.736299-27.862581-17.939581-46.635133-17.939581l-65.911152 0c11.075243-15.565511 15.34243-30.91715 16.578584-36.290531 16.996093-37.043684 16.793478-67.849294-0.653893-91.639117-22.375613-29.184693-66.192561-35.311227-99.009991-35.311227-15.885805 0-28.76923 1.442862-33.619702 1.986237l-0.442068 0.049119c-41.294498 0.596588-84.801385 21.442358-129.314181 61.962214-33.516348 30.509874-59.803038 65.291029-74.170257 86.024236C471.617267 168.114882 393.156288 72.315002 304.181861 70.911026c-5.358031-1.028423-18.264992-2.675946-34.688034-2.675946-58.675354 0-85.980233 19.550265-98.606809 36.020378-16.689101 22.757307-16.870226 54.469566-0.530073 91.713818l0.248663 0.756223c1.706875 5.219885 5.830799 17.823947 15.321964 31.071669l-53.460586 0c-18.772552 0-34.898835 6.203282-46.635133 17.939581-11.736299 11.736299-17.939581 27.862581-17.939581 46.635133l0 166.966733c0 30.163997 16.454764 53.447283 43.181475 61.517075l0 342.878185c0 27.607778 5.368264 51.114145 15.524578 67.976184 10.568706 17.548678 25.538653 26.823925 43.291992 26.823925l667.867954 0c17.753339 0 32.723286-9.275247 43.291992-26.823925 10.156314-16.86204 15.524578-40.368406 15.524578-67.976184L896.574842 523.601222c34.031071-2.976798 57.555857-27.711132 59.009975-62.652945l0.004093-168.577417C955.588911 273.598308 949.385629 257.472026 937.64933 245.735727zM540.667923 227.796146c13.491269-18.692734 36.784788-48.322565 65.274656-73.726142 36.473703-32.523741 70.883397-49.015344 102.273315-49.015344l1.439792 0 0.51063-0.031722c7.520277-0.940418 17.068747-1.479701 26.200732-1.479701 49.542346 0 67.421552 13.476943 73.670883 21.51092 8.777921 11.287067 7.756661 29.481452-3.122107 55.604412-1.373277 1.443885-1.970888 2.467191-2.053776 4.632507-1.084705 4.000104-10.168594 33.485649-43.921325 42.504046L540.667923 227.795123zM918.561599 292.370861l0 168.406524c0 17.247826-10.298554 27.545356-27.54638 27.545356l-11.228739 0c-0.558725-0.045025-1.137916-0.067538-1.725294-0.067538L524.604062 488.255203c-0.171915-76.031651-0.429789-153.092747-0.74599-223.429699l367.157147 0C908.263046 264.824481 918.561599 275.122011 918.561599 292.370861zM524.682857 525.960966l334.864674-0.670266 0 339.880921c0 39.848567-12.741185 57.771775-21.788236 57.771775l-313.735447 0C524.805654 890.668319 525.075807 732.174562 524.682857 525.960966zM204.470905 184.382381c-0.083911-0.083911-0.160659-0.159636-0.232291-0.231267l0-0.565888-0.323365-0.76748c-11.162224-26.510794-12.282744-44.935422-3.423983-56.32482l0.064468-0.085958c13.906731-18.872836 50.594305-21.691021 71.225181-21.691021 13.982456 0 24.62177 1.216711 28.547173 1.740644l1.984191 0.035816c30.859845 0 64.634066 15.95846 100.385315 47.433312 28.601408 25.179472 52.189639 55.013965 65.871243 73.869405L244.333798 227.795123c-31.051203-9.908674-38.186717-38.678928-38.655392-40.793078l0-1.414209L204.470905 184.382381zM104.921631 292.370861c0-17.247826 10.29753-27.54638 27.54638-27.54638L486.842017 264.824481c0.341784 65.819055 0.61296 142.884244 0.782829 223.429699L130.896212 488.25418c-16.266475-0.62524-25.974581-10.893094-25.974581-27.477818L104.921631 292.370861zM486.775502 920.848689c-0.127913 0.695848-0.213871 1.39579-0.25992 2.095731L169.891342 922.94442c-9.04705 0-21.788236-17.923208-21.788236-57.771775L148.103106 526.71412l339.594395-0.679475C488.061798 737.734184 487.667825 906.509099 486.775502 920.848689z" p-id="5168" fill="#ffb22e"></path></svg>