<?xml version="1.0" standalone="no"?><!DOCTYPE svg PUBLIC "-//W3C//DTD SVG 1.1//EN" "http://www.w3.org/Graphics/SVG/1.1/DTD/svg11.dtd"><svg t="1545446897366" class="icon" style="" viewBox="0 0 1024 1024" version="1.1" xmlns="http://www.w3.org/2000/svg" p-id="9062" xmlns:xlink="http://www.w3.org/1999/xlink" width="128" height="128"><defs><style type="text/css"></style></defs><path d="M908.2 260.63333332v-1.4h-1.4l0.4 0.4c0.4 0.3 0.7 0.6 1 1z" p-id="9063" fill="#ffb22e"></path><path d="M936.5 789.53333332H85.9c-11 0-19.9 11.2-19.9 25s8.9 25 19.9 25h850.6c11 0 19.9-11.2 19.9-25-0.1-13.8-9-25-19.9-25zM107.3 617.83333332l250.2-181L562.6 633.33333332l344.3-338.4c0.5-0.5 1-1.1 1.5-1.7l0.6 69.2c0.1 13.7 11.3 24.8 25 24.8h0.2c13.8-0.1 24.9-11.4 24.8-25.2l-1.2-153-163.9 0.3c-13.8 0-25 11.2-25 25s11.2 25 25 25l78-0.1-0.1 0.1-309.7 304.4L362 371.93333332 78 577.33333332c-11.2 8.1-13.7 23.7-5.6 34.9s23.7 13.7 34.9 5.6z m800.9-358.6v1.4c-0.3-0.4-0.6-0.7-1-1l-0.4-0.4h1.4z" p-id="9064" fill="#ffb22e"></path></svg>